<svg width="228" height="58" viewBox="0 0 228 58" fill="none" xmlns="http://www.w3.org/2000/svg">
<path d="M78.26 41.18C78.044 41.18 77.876 41.12 77.756 41C77.636 40.88 77.576 40.748 77.576 40.604C77.576 40.244 77.816 39.992 78.296 39.848C79.088 39.608 79.64 39.356 79.952 39.092C80.288 38.828 80.456 38.324 80.456 37.58V21.164C80.456 20.396 80.3 19.856 79.988 19.544C79.7 19.208 79.136 18.944 78.296 18.752C78.008 18.68 77.804 18.572 77.684 18.428C77.588 18.284 77.54 18.14 77.54 17.996C77.54 17.828 77.6 17.696 77.72 17.6C77.864 17.48 78.044 17.42 78.26 17.42C79.052 17.42 79.712 17.444 80.24 17.492C80.768 17.54 81.272 17.588 81.752 17.636C82.232 17.684 82.784 17.708 83.408 17.708C83.984 17.708 84.512 17.684 84.992 17.636C85.472 17.564 86 17.504 86.576 17.456C87.176 17.384 87.908 17.348 88.772 17.348C91.628 17.348 93.8 17.756 95.288 18.572C96.8 19.364 97.556 20.744 97.556 22.712C97.556 23.432 97.376 24.128 97.016 24.8C96.68 25.472 96.212 26.048 95.612 26.528C95.228 26.84 94.808 27.116 94.352 27.356C93.92 27.572 93.452 27.74 92.948 27.86C92.852 27.884 92.804 27.944 92.804 28.04C92.804 28.136 92.852 28.196 92.948 28.22C93.596 28.34 94.256 28.52 94.928 28.76C95.624 28.976 96.272 29.3 96.872 29.732C97.472 30.164 97.952 30.728 98.312 31.424C98.672 32.096 98.852 32.96 98.852 34.016C98.852 35.36 98.636 36.428 98.204 37.22C97.796 38.012 97.292 38.612 96.692 39.02C96.092 39.428 95.54 39.764 95.036 40.028C94.244 40.412 93.344 40.7 92.336 40.892C91.328 41.06 90.128 41.144 88.736 41.144C87.824 41.144 86.948 41.12 86.108 41.072C85.268 41.024 84.38 41 83.444 41C82.964 41 82.4 41.012 81.752 41.036C81.128 41.06 80.504 41.084 79.88 41.108C79.28 41.156 78.74 41.18 78.26 41.18ZM88.628 39.056C89.3 39.056 89.912 38.852 90.464 38.444C91.04 38.012 91.496 37.436 91.832 36.716C92.168 35.996 92.336 35.192 92.336 34.304C92.336 33.488 92.24 32.816 92.048 32.288C91.88 31.76 91.664 31.34 91.4 31.028C91.16 30.692 90.932 30.44 90.716 30.272C90.548 30.104 90.236 29.936 89.78 29.768C89.348 29.576 88.808 29.48 88.16 29.48C87.848 29.48 87.5 29.576 87.116 29.768C86.756 29.936 86.576 30.224 86.576 30.632V36.824C86.576 37.544 86.756 38.096 87.116 38.48C87.476 38.864 87.98 39.056 88.628 39.056ZM87.98 27.752C88.532 27.752 89.024 27.692 89.456 27.572C89.888 27.428 90.32 27.164 90.752 26.78C90.92 26.612 91.136 26.276 91.4 25.772C91.664 25.244 91.796 24.5 91.796 23.54C91.796 22.46 91.664 21.596 91.4 20.948C91.16 20.276 90.788 19.796 90.284 19.508C89.78 19.196 89.156 19.04 88.412 19.04C87.812 19.04 87.356 19.172 87.044 19.436C86.732 19.676 86.576 20.048 86.576 20.552V26.492C86.576 26.924 86.732 27.248 87.044 27.464C87.38 27.656 87.692 27.752 87.98 27.752ZM108.42 41.504C106.956 41.504 105.636 41.18 104.46 40.532C103.284 39.884 102.348 38.984 101.652 37.832C100.956 36.68 100.608 35.372 100.608 33.908C100.608 32.732 100.824 31.628 101.256 30.596C101.712 29.54 102.324 28.616 103.092 27.824C103.884 27.032 104.796 26.408 105.828 25.952C106.884 25.496 108.012 25.268 109.212 25.268C110.724 25.268 112.08 25.616 113.28 26.312C114.504 27.008 115.476 27.932 116.196 29.084C116.916 30.236 117.276 31.496 117.276 32.864C117.276 34.424 116.94 35.864 116.268 37.184C115.62 38.504 114.636 39.56 113.316 40.352C112.02 41.12 110.388 41.504 108.42 41.504ZM109.104 39.812C109.536 39.812 109.908 39.728 110.22 39.56C110.532 39.368 110.796 39.104 111.012 38.768C111.3 38.288 111.504 37.628 111.624 36.788C111.744 35.948 111.804 34.928 111.804 33.728C111.804 32.384 111.672 31.208 111.408 30.2C111.144 29.192 110.772 28.4 110.292 27.824C109.836 27.248 109.296 26.96 108.672 26.96C108.36 26.96 108.072 27.02 107.808 27.14C107.544 27.236 107.316 27.38 107.124 27.572C106.716 28.004 106.428 28.676 106.26 29.588C106.116 30.476 106.044 31.616 106.044 33.008C106.044 34.136 106.176 35.228 106.44 36.284C106.704 37.316 107.064 38.168 107.52 38.84C108 39.488 108.528 39.812 109.104 39.812ZM126.595 41.504C125.131 41.504 123.811 41.18 122.635 40.532C121.459 39.884 120.523 38.984 119.827 37.832C119.131 36.68 118.783 35.372 118.783 33.908C118.783 32.732 118.999 31.628 119.431 30.596C119.887 29.54 120.499 28.616 121.267 27.824C122.059 27.032 122.971 26.408 124.003 25.952C125.059 25.496 126.187 25.268 127.387 25.268C128.899 25.268 130.255 25.616 131.455 26.312C132.679 27.008 133.651 27.932 134.371 29.084C135.091 30.236 135.451 31.496 135.451 32.864C135.451 34.424 135.115 35.864 134.443 37.184C133.795 38.504 132.811 39.56 131.491 40.352C130.195 41.12 128.563 41.504 126.595 41.504ZM127.279 39.812C127.711 39.812 128.083 39.728 128.395 39.56C128.707 39.368 128.971 39.104 129.187 38.768C129.475 38.288 129.679 37.628 129.799 36.788C129.919 35.948 129.979 34.928 129.979 33.728C129.979 32.384 129.847 31.208 129.583 30.2C129.319 29.192 128.947 28.4 128.467 27.824C128.011 27.248 127.471 26.96 126.847 26.96C126.535 26.96 126.247 27.02 125.983 27.14C125.719 27.236 125.491 27.38 125.299 27.572C124.891 28.004 124.603 28.676 124.435 29.588C124.291 30.476 124.219 31.616 124.219 33.008C124.219 34.136 124.351 35.228 124.615 36.284C124.879 37.316 125.239 38.168 125.695 38.84C126.175 39.488 126.703 39.812 127.279 39.812ZM136.936 41.108C136.456 41.108 136.216 40.928 136.216 40.568C136.216 40.376 136.288 40.232 136.432 40.136C136.576 40.016 136.78 39.908 137.044 39.812C137.404 39.692 137.716 39.572 137.98 39.452C138.244 39.308 138.376 38.972 138.376 38.444V21.344C138.376 20.696 138.292 20.132 138.124 19.652C137.98 19.172 137.608 18.872 137.008 18.752C136.744 18.704 136.612 18.512 136.612 18.176C136.612 17.864 136.732 17.684 136.972 17.636C137.572 17.516 138.256 17.336 139.024 17.096C139.792 16.832 140.524 16.568 141.22 16.304C141.94 16.04 142.48 15.848 142.84 15.728C143.056 15.656 143.224 15.62 143.344 15.62C143.512 15.62 143.62 15.668 143.668 15.764C143.716 15.86 143.74 15.968 143.74 16.088C143.74 16.256 143.716 16.544 143.668 16.952C143.62 17.336 143.584 17.696 143.56 18.032L143.596 31.856C143.596 32.168 143.704 32.324 143.92 32.324C143.992 32.324 144.064 32.3 144.136 32.252C144.232 32.204 144.304 32.168 144.352 32.144C145.216 31.376 145.996 30.596 146.692 29.804C147.412 28.988 147.892 28.388 148.132 28.004C148.228 27.86 148.3 27.74 148.348 27.644C148.42 27.524 148.456 27.428 148.456 27.356C148.456 27.236 148.36 27.116 148.168 26.996C147.976 26.852 147.676 26.756 147.268 26.708C146.98 26.66 146.836 26.516 146.836 26.276C146.836 26.06 146.92 25.928 147.088 25.88C147.28 25.808 147.46 25.772 147.628 25.772H149.392C149.824 25.772 150.412 25.76 151.156 25.736C151.924 25.688 152.668 25.64 153.388 25.592C154.132 25.52 154.66 25.472 154.972 25.448C155.236 25.448 155.368 25.592 155.368 25.88C155.368 26.072 155.296 26.24 155.152 26.384C155.008 26.504 154.804 26.588 154.54 26.636C154.132 26.732 153.64 26.9 153.064 27.14C152.488 27.38 151.888 27.68 151.264 28.04C150.808 28.28 150.352 28.556 149.896 28.868C149.44 29.156 149.008 29.456 148.6 29.768C148.216 30.08 147.868 30.392 147.556 30.704C147.436 30.824 147.376 30.956 147.376 31.1C147.376 31.196 147.4 31.28 147.448 31.352C147.52 31.4 147.58 31.46 147.628 31.532C148.204 32.276 148.732 33.008 149.212 33.728C149.692 34.424 150.184 35.108 150.688 35.78C151.192 36.452 151.756 37.148 152.38 37.868C152.788 38.324 153.28 38.744 153.856 39.128C154.456 39.488 154.948 39.74 155.332 39.884C155.524 39.956 155.728 40.04 155.944 40.136C156.184 40.232 156.304 40.376 156.304 40.568C156.304 40.928 156.04 41.108 155.512 41.108C153.952 41.108 152.452 41.084 151.012 41.036C149.596 41.012 148.288 41 147.088 41C146.608 41 146.368 40.82 146.368 40.46C146.368 40.268 146.44 40.124 146.584 40.028C146.728 39.908 146.932 39.8 147.196 39.704C147.388 39.632 147.508 39.56 147.556 39.488C147.628 39.392 147.676 39.296 147.7 39.2C147.7 39.08 147.652 38.96 147.556 38.84C147.484 38.696 147.376 38.528 147.232 38.336L143.956 33.548C143.908 33.5 143.86 33.476 143.812 33.476C143.668 33.524 143.596 33.62 143.596 33.764C143.596 34.124 143.596 34.496 143.596 34.88C143.596 35.24 143.596 35.6 143.596 35.96C143.596 36.344 143.596 36.764 143.596 37.22C143.596 37.652 143.596 38.072 143.596 38.48C143.596 38.864 143.668 39.152 143.812 39.344C143.98 39.512 144.256 39.656 144.64 39.776C144.832 39.848 145 39.944 145.144 40.064C145.288 40.184 145.36 40.34 145.36 40.532C145.36 40.7 145.3 40.844 145.18 40.964C145.084 41.06 144.94 41.108 144.748 41.108C144.268 41.108 143.812 41.084 143.38 41.036C142.948 41.012 142.528 40.988 142.12 40.964C141.712 40.94 141.292 40.928 140.86 40.928C140.452 40.928 140.032 40.94 139.6 40.964C139.192 40.988 138.76 41.012 138.304 41.036C137.872 41.084 137.416 41.108 136.936 41.108ZM162.081 41.504C161.265 41.504 160.473 41.408 159.705 41.216C158.961 41.048 158.265 40.748 157.617 40.316C157.377 39.932 157.209 39.344 157.113 38.552C157.017 37.736 156.981 36.86 157.005 35.924C157.005 35.612 157.257 35.456 157.761 35.456C157.977 35.456 158.157 35.528 158.301 35.672C158.469 35.816 158.577 35.948 158.625 36.068C159.105 37.028 159.633 37.892 160.209 38.66C160.785 39.404 161.517 39.776 162.405 39.776C163.029 39.776 163.485 39.584 163.773 39.2C164.085 38.816 164.241 38.396 164.241 37.94C164.241 37.316 163.989 36.8 163.485 36.392C162.981 35.984 162.429 35.636 161.829 35.348C161.157 35.012 160.497 34.628 159.849 34.196C159.201 33.74 158.661 33.176 158.229 32.504C157.797 31.832 157.581 31.016 157.581 30.056C157.581 29.072 157.845 28.232 158.373 27.536C158.925 26.816 159.657 26.264 160.569 25.88C161.481 25.472 162.477 25.268 163.557 25.268C164.373 25.268 165.129 25.364 165.825 25.556C166.545 25.724 167.037 25.892 167.301 26.06C167.493 26.3 167.637 26.768 167.733 27.464C167.853 28.136 167.913 28.904 167.913 29.768C167.913 30.032 167.673 30.164 167.193 30.164C167.025 30.164 166.845 30.104 166.653 29.984C166.461 29.84 166.341 29.708 166.293 29.588C165.981 28.628 165.573 27.908 165.069 27.428C164.589 26.948 164.061 26.708 163.485 26.708C162.957 26.708 162.477 26.876 162.045 27.212C161.637 27.548 161.433 27.992 161.433 28.544C161.433 29.024 161.673 29.468 162.153 29.876C162.657 30.26 163.233 30.62 163.881 30.956C165.465 31.772 166.593 32.564 167.265 33.332C167.937 34.1 168.273 35.132 168.273 36.428C168.273 38.036 167.757 39.284 166.725 40.172C165.693 41.06 164.145 41.504 162.081 41.504ZM170.511 41.108C170.031 41.108 169.791 40.928 169.791 40.568C169.791 40.256 170.067 40.004 170.619 39.812C170.979 39.692 171.291 39.572 171.555 39.452C171.819 39.308 171.951 38.972 171.951 38.444V21.344C171.951 20.696 171.867 20.132 171.699 19.652C171.555 19.172 171.183 18.872 170.583 18.752C170.319 18.704 170.187 18.512 170.187 18.176C170.187 17.864 170.307 17.684 170.547 17.636C171.147 17.516 171.831 17.336 172.599 17.096C173.367 16.832 174.099 16.568 174.795 16.304C175.515 16.04 176.055 15.848 176.415 15.728C176.631 15.656 176.799 15.62 176.919 15.62C177.087 15.62 177.195 15.668 177.243 15.764C177.291 15.86 177.315 15.968 177.315 16.088C177.315 16.208 177.303 16.376 177.279 16.592C177.255 16.808 177.231 17.048 177.207 17.312C177.183 17.552 177.159 17.792 177.135 18.032V26.816C177.135 27.032 177.147 27.236 177.171 27.428C177.195 27.62 177.243 27.74 177.315 27.788C177.675 27.476 178.095 27.128 178.575 26.744C179.079 26.36 179.655 26.024 180.303 25.736C180.975 25.448 181.719 25.304 182.535 25.304C183.831 25.304 184.923 25.76 185.811 26.672C186.699 27.56 187.143 28.82 187.143 30.452V38.372C187.143 38.876 187.263 39.212 187.503 39.38C187.767 39.548 188.067 39.692 188.403 39.812C188.643 39.908 188.823 40.016 188.943 40.136C189.087 40.232 189.159 40.376 189.159 40.568C189.159 40.928 188.895 41.108 188.367 41.108C187.767 41.108 187.275 41.084 186.891 41.036C186.507 41.012 186.135 40.988 185.775 40.964C185.439 40.94 185.007 40.928 184.479 40.928C183.927 40.928 183.495 40.94 183.183 40.964C182.895 40.988 182.583 41.012 182.247 41.036C181.935 41.084 181.479 41.108 180.879 41.108C180.279 41.108 179.979 40.916 179.979 40.532C179.979 40.34 180.051 40.184 180.195 40.064C180.363 39.944 180.531 39.86 180.699 39.812C181.011 39.716 181.287 39.572 181.527 39.38C181.791 39.188 181.923 38.828 181.923 38.3V31.244C181.923 30.74 181.827 30.284 181.635 29.876C181.443 29.468 181.191 29.144 180.879 28.904C180.567 28.664 180.219 28.544 179.835 28.544C179.499 28.544 179.127 28.604 178.719 28.724C178.335 28.844 177.939 29.048 177.531 29.336C177.387 29.432 177.291 29.552 177.243 29.696C177.195 29.84 177.171 30.056 177.171 30.344V38.372C177.171 38.852 177.279 39.176 177.495 39.344C177.735 39.512 178.011 39.656 178.323 39.776C178.515 39.848 178.683 39.944 178.827 40.064C178.971 40.184 179.043 40.34 179.043 40.532C179.043 40.916 178.839 41.108 178.431 41.108C177.951 41.108 177.483 41.084 177.027 41.036C176.571 41.012 176.127 40.988 175.695 40.964C175.287 40.94 174.867 40.928 174.435 40.928C174.027 40.928 173.607 40.94 173.175 40.964C172.767 40.988 172.335 41.012 171.879 41.036C171.447 41.084 170.991 41.108 170.511 41.108ZM198.279 41.504C196.815 41.504 195.495 41.18 194.319 40.532C193.143 39.884 192.207 38.984 191.511 37.832C190.815 36.68 190.467 35.372 190.467 33.908C190.467 32.732 190.683 31.628 191.115 30.596C191.571 29.54 192.183 28.616 192.951 27.824C193.743 27.032 194.655 26.408 195.687 25.952C196.743 25.496 197.871 25.268 199.071 25.268C200.583 25.268 201.939 25.616 203.139 26.312C204.363 27.008 205.335 27.932 206.055 29.084C206.775 30.236 207.135 31.496 207.135 32.864C207.135 34.424 206.799 35.864 206.127 37.184C205.479 38.504 204.495 39.56 203.175 40.352C201.879 41.12 200.247 41.504 198.279 41.504ZM198.963 39.812C199.395 39.812 199.767 39.728 200.079 39.56C200.391 39.368 200.655 39.104 200.871 38.768C201.159 38.288 201.363 37.628 201.483 36.788C201.603 35.948 201.663 34.928 201.663 33.728C201.663 32.384 201.531 31.208 201.267 30.2C201.003 29.192 200.631 28.4 200.151 27.824C199.695 27.248 199.155 26.96 198.531 26.96C198.219 26.96 197.931 27.02 197.667 27.14C197.403 27.236 197.175 27.38 196.983 27.572C196.575 28.004 196.287 28.676 196.119 29.588C195.975 30.476 195.903 31.616 195.903 33.008C195.903 34.136 196.035 35.228 196.299 36.284C196.563 37.316 196.923 38.168 197.379 38.84C197.859 39.488 198.387 39.812 198.963 39.812ZM209.147 50.252C208.979 50.252 208.811 50.204 208.643 50.108C208.499 50.012 208.427 49.88 208.427 49.712C208.427 49.52 208.499 49.364 208.643 49.244C208.811 49.124 209.015 49.028 209.255 48.956C209.807 48.788 210.167 48.608 210.335 48.416C210.503 48.248 210.587 47.972 210.587 47.588V30.56C210.587 30.248 210.527 29.96 210.407 29.696C210.287 29.408 210.119 29.168 209.903 28.976C209.687 28.784 209.423 28.664 209.111 28.616C208.967 28.568 208.847 28.508 208.751 28.436C208.679 28.34 208.643 28.172 208.643 27.932C208.643 27.716 208.679 27.56 208.751 27.464C208.847 27.368 208.955 27.308 209.075 27.284C209.891 27.092 210.815 26.84 211.847 26.528C212.879 26.192 213.755 25.844 214.475 25.484C214.595 25.436 214.715 25.376 214.835 25.304C214.979 25.208 215.099 25.16 215.195 25.16C215.363 25.16 215.459 25.208 215.483 25.304C215.531 25.4 215.555 25.508 215.555 25.628C215.555 25.82 215.519 26.132 215.447 26.564C215.399 26.996 215.375 27.38 215.375 27.716C215.375 27.956 215.399 28.1 215.447 28.148C215.687 27.908 216.107 27.584 216.707 27.176C217.331 26.768 218.039 26.408 218.831 26.096C219.623 25.76 220.391 25.592 221.135 25.592C222.431 25.592 223.535 25.94 224.447 26.636C225.359 27.332 226.055 28.22 226.535 29.3C227.015 30.38 227.255 31.508 227.255 32.684C227.255 33.812 227.039 34.916 226.607 35.996C226.175 37.052 225.575 38.012 224.807 38.876C224.039 39.74 223.151 40.424 222.143 40.928C221.135 41.432 220.043 41.684 218.867 41.684C218.627 41.684 218.327 41.648 217.967 41.576C217.631 41.528 217.283 41.444 216.923 41.324C216.563 41.228 216.227 41.12 215.915 41C215.891 41 215.867 41.012 215.843 41.036C215.819 41.06 215.795 41.096 215.771 41.144C215.771 41.216 215.771 41.3 215.771 41.396V47.192C215.771 47.528 215.831 47.804 215.951 48.02C216.095 48.236 216.299 48.416 216.563 48.56C216.851 48.704 217.211 48.848 217.643 48.992C217.907 49.064 218.099 49.148 218.219 49.244C218.363 49.364 218.435 49.52 218.435 49.712C218.435 49.856 218.375 49.976 218.255 50.072C218.159 50.192 218.027 50.252 217.859 50.252C217.139 50.252 216.347 50.216 215.483 50.144C214.643 50.096 213.911 50.072 213.287 50.072C212.879 50.072 212.447 50.084 211.991 50.108C211.535 50.132 211.067 50.156 210.587 50.18C210.107 50.228 209.627 50.252 209.147 50.252ZM218.615 39.884C218.855 39.884 219.143 39.788 219.479 39.596C219.839 39.404 220.187 39.08 220.523 38.624C220.859 38.168 221.135 37.568 221.351 36.824C221.591 36.056 221.711 35.12 221.711 34.016C221.711 32.72 221.591 31.688 221.351 30.92C221.111 30.152 220.811 29.576 220.451 29.192C220.115 28.808 219.767 28.556 219.407 28.436C219.047 28.316 218.735 28.256 218.471 28.256C218.063 28.256 217.643 28.352 217.211 28.544C216.803 28.712 216.467 28.928 216.203 29.192C215.939 29.432 215.807 29.66 215.807 29.876C215.807 30.02 215.807 30.368 215.807 30.92C215.807 31.472 215.795 32.108 215.771 32.828C215.771 33.524 215.771 34.172 215.771 34.772C215.771 35.348 215.771 35.732 215.771 35.924C215.771 36.404 215.867 36.956 216.059 37.58C216.275 38.204 216.587 38.744 216.995 39.2C217.427 39.656 217.967 39.884 218.615 39.884Z" fill="#2B3E59"/>
<circle cx="29" cy="29" r="29" fill="#D3BB3D"/>
<path d="M29 20.063C26.5274 17.8451 23.3216 16.6204 20 16.625C18.422 16.625 16.907 16.895 15.5 17.393V38.768C16.9454 38.258 18.4672 37.9983 20 38C23.4575 38 26.612 39.3005 29 41.438M29 20.063C31.4725 17.8449 34.6784 16.6203 38 16.625C39.578 16.625 41.093 16.895 42.5 17.393V38.768C41.0546 38.258 39.5328 37.9983 38 38C34.6784 37.9954 31.4726 39.2201 29 41.438M29 20.063V41.438" stroke="white" stroke-width="1.5" stroke-linecap="round" stroke-linejoin="round"/>
</svg>
